{"title":"Prisoners 2013 TS XViD AC3 MURDER","uid":9039361,"size":1163637893,"categoryP":"video","categoryS":"movies","magnet":"?xt=urn:btih:208bc6c130fa93fc5f8206a4f3114fcf1a6bd525&amp;dn=Prisoners+2013+TS+XViD+AC3+MURDER&amp;tr=udp%3A%2F%2Ftracker.openbittorrent.com%3A80&amp;tr=udp%3A%2F%2Fopen.demonii.com%3A1337&amp;tr=udp%3A%2F%2Ftracker.coppersurfer.tk%3A6969&amp;tr=udp%3A%2F%2Fexodus.desync.com%3A6969","seeders":0,"leechers":1,"uploader":"scenetime55","files":5,"time":1381583048,"description":"SceneTime,,Com\n SceneTime,,Com\n\n                                                         \n- Latest Releases\n- Super Fast Speeds\n- Good Community\n- Competitions with prizes (yay)\n- Love for the Scene\n\n\nCredit to EVERYONE for sharing and seeding back\nespecially to SceneTime where i get all my\ndownloads.\n\n\n\n\nPrisoners 2013 TS XViD AC3 MURDER.mkv\n\nFormat                                   : Matroska\nFormat version                           : Version 2\nFile size                                : 1.08 GiB\nDuration                                 : 2h 25mn\nOverall bit rate                         : 1 064 Kbps\nEncoded date                             : UTC 2013-10-11 00:00:17\nWriting application                      : mkvmerge v6.2.0 ('Promised Land') built on Apr 28 2013 12:22:01\nWriting library                          : libebml v1.3.0 + libmatroska v1.4.0\n\nVideo\nID                                       : 1\nFormat                                   : MPEG-4 Visual\nFormat profile                           : Advanced Simple@L5\nFormat settings, BVOP                    : Yes\nFormat settings, QPel                    : No\nFormat settings, GMC                     : No warppoints\nFormat settings, Matrix                  : Default (H.263)\nCodec ID                                 : V_MS/VFW/FOURCC / XVID\nCodec ID/Hint                            : XviD\nDuration                                 : 2h 25mn\nBit rate                                 : 915 Kbps\nWidth                                    : 720 pixels\nHeight                                   : 384 pixels\nDisplay aspect ratio                     : 1.85:1\nFrame rate mode                          : Constant\nFrame rate                               : 29.970 fps\nColor space                              : YUV\nChroma subsampling                       : 4:2:0\nBit depth                                : 8 bits\nScan type                                : Progressive\nCompression mode                         : Lossy\nBits/(Pixel*Frame)                       : 0.110\nStream size                              : 954 MiB (86%)\nWriting library                          : XviD 64\nDefault                                  : Yes\nForced                                   : No\n\nAudio\nID                                       : 2\nFormat                                   : AC-3\nFormat/Info                              : Audio Coding 3\nMode extension                           : CM (complete main)\nFormat settings, Endianness              : Big\nCodec ID                                 : A_AC3\nDuration                                 : 2h 25mn\nBit rate mode                            : Constant\nBit rate                                 : 128 Kbps\nChannel count                            : 2 channels\nChannel positions                        : Front: L R\nSampling rate                            : 44.1 KHz\nBit depth                                : 16 bits\nCompression mode                         : Lossy\nStream size                              : 133 MiB (12%)\nDefault                                  : Yes\nForced                                   : No","torrent":{"xt":"urn:btih:208bc6c130fa93fc5f8206a4f3114fcf1a6bd525","amp;dn":"Prisoners+2013+TS+XViD+AC3+MURDER","amp;tr":["udp%3A%2F%2Ftracker.openbittorrent.com%3A80","udp%3A%2F%2Fopen.demonii.com%3A1337","udp%3A%2F%2Ftracker.coppersurfer.tk%3A6969","udp%3A%2F%2Fexodus.desync.com%3A6969"],"infoHash":"208bc6c130fa93fc5f8206a4f3114fcf1a6bd525","infoHashBuffer":{"type":"Buffer","data":[32,139,198,193,48,250,147,252,95,130,6,164,243,17,79,207,26,107,213,37]},"announce":[],"urlList":[]}}